<?xml version="1.0" encoding="UTF-8" standalone="no"?>
<!DOCTYPE svg PUBLIC "-//W3C//DTD SVG 1.1//EN"
 "http://www.w3.org/Graphics/SVG/1.1/DTD/svg11.dtd">
<!-- Generated by graphviz version 2.28.0 (20110509.1545)
 -->
<!-- Title: G Pages: 1 -->
<svg width="850pt" height="1215pt"
 viewBox="0.00 0.00 850.00 1215.00" xmlns="http://www.w3.org/2000/svg" xmlns:xlink="http://www.w3.org/1999/xlink">
<g id="graph1" class="graph" transform="scale(1 1) rotate(0) translate(4 1211)">
<title>G</title>
<polygon fill="white" stroke="white" points="-4,5 -4,-1211 847,-1211 847,5 -4,5"/>
<g id="graph2" class="cluster"><title>cluster_GW2CBackend</title>
<polyline fill="none" stroke="gray" points="207,-152 822,-152 "/>
<path fill="none" stroke="gray" d="M822,-152C828,-152 834,-158 834,-164"/>
<polyline fill="none" stroke="gray" points="834,-164 834,-1187 "/>
<path fill="none" stroke="gray" d="M834,-1187C834,-1193 828,-1199 822,-1199"/>
<polyline fill="none" stroke="gray" points="822,-1199 207,-1199 "/>
<path fill="none" stroke="gray" d="M207,-1199C201,-1199 195,-1193 195,-1187"/>
<polyline fill="none" stroke="gray" points="195,-1187 195,-164 "/>
<path fill="none" stroke="gray" d="M195,-164C195,-158 201,-152 207,-152"/>
<text text-anchor="middle" x="514.5" y="-1184" font-family="Times,serif" font-size="11.00" fill="gray">GW2CBackend</text>
</g>
<g id="graph3" class="cluster"><title>cluster_GW2CBackend\Controller</title>
<polyline fill="none" stroke="gray" points="215,-935 814,-935 "/>
<path fill="none" stroke="gray" d="M814,-935C820,-935 826,-941 826,-947"/>
<polyline fill="none" stroke="gray" points="826,-947 826,-1158 "/>
<path fill="none" stroke="gray" d="M826,-1158C826,-1164 820,-1170 814,-1170"/>
<polyline fill="none" stroke="gray" points="814,-1170 215,-1170 "/>
<path fill="none" stroke="gray" d="M215,-1170C209,-1170 203,-1164 203,-1158"/>
<polyline fill="none" stroke="gray" points="203,-1158 203,-947 "/>
<path fill="none" stroke="gray" d="M203,-947C203,-941 209,-935 215,-935"/>
<text text-anchor="middle" x="514.5" y="-1155" font-family="Times,serif" font-size="11.00" fill="gray">Controller</text>
</g>
<g id="graph4" class="cluster"><title>cluster_GW2CBackend\Marker</title>
<polyline fill="none" stroke="gray" points="683,-692 765,-692 "/>
<path fill="none" stroke="gray" d="M765,-692C771,-692 777,-698 777,-704"/>
<polyline fill="none" stroke="gray" points="777,-704 777,-915 "/>
<path fill="none" stroke="gray" d="M777,-915C777,-921 771,-927 765,-927"/>
<polyline fill="none" stroke="gray" points="765,-927 683,-927 "/>
<path fill="none" stroke="gray" d="M683,-927C677,-927 671,-921 671,-915"/>
<polyline fill="none" stroke="gray" points="671,-915 671,-704 "/>
<path fill="none" stroke="gray" d="M671,-704C671,-698 677,-692 683,-692"/>
<text text-anchor="middle" x="724" y="-912" font-family="Times,serif" font-size="11.00" fill="gray">Marker</text>
</g>
<!-- \\GW2CBackend\\Controller\\AreaControllerProvider -->
<g id="node3" class="node"><title>\\GW2CBackend\\Controller\\AreaControllerProvider</title>
<a xlink:href="Controller.AreaControllerProvider.html" xlink:title="AreaControllerProvider" target="_parent">
<polygon fill="none" stroke="black" points="804.724,-1087 643.276,-1087 643.276,-1051 804.724,-1051 804.724,-1087"/>
<text text-anchor="middle" x="724" y="-1064.6" font-family="Courier,monospace" font-size="11.00">AreaControllerProvider</text>
</a>
</g>
<!-- \\GW2CBackend\\Controller\\ControllerProvider -->
<g id="node4" class="node"><title>\\GW2CBackend\\Controller\\ControllerProvider</title>
<a xlink:href="Controller.ControllerProvider.html" xlink:title="ControllerProvider" target="_parent">
<polygon fill="none" stroke="black" points="346.319,-1087 211.681,-1087 211.681,-1051 346.319,-1051 346.319,-1087"/>
<text text-anchor="middle" x="279" y="-1064.6" font-family="Courier,monospace" font-size="11.00">ControllerProvider</text>
</a>
</g>
<!-- \\GW2CBackend\\Controller\\AreaControllerProvider&#45;&gt;\\GW2CBackend\\Controller\\ControllerProvider -->
<g id="edge5" class="edge"><title>\\GW2CBackend\\Controller\\AreaControllerProvider&#45;&gt;\\GW2CBackend\\Controller\\ControllerProvider</title>
<path fill="none" stroke="black" d="M643.289,-1069C561.947,-1069 436.594,-1069 356.453,-1069"/>
<polygon fill="none" stroke="black" points="356.425,-1065.5 346.425,-1069 356.425,-1072.5 356.425,-1065.5"/>
</g>
<!-- \\Silex\\ControllerProviderInterface -->
<g id="node27" class="node"><title>\\Silex\\ControllerProviderInterface</title>
<ellipse fill="none" stroke="black" cx="279" cy="-126" rx="148.749" ry="18"/>
<text text-anchor="middle" x="279" y="-120.4" font-family="Times,serif" font-size="14.00" fill="gray">\\Silex\\ControllerProviderInterface</text>
</g>
<!-- \\GW2CBackend\\Controller\\AreaControllerProvider&#45;&gt;\\Silex\\ControllerProviderInterface -->
<g id="edge11" class="edge"><title>\\GW2CBackend\\Controller\\AreaControllerProvider&#45;&gt;\\Silex\\ControllerProviderInterface</title>
<path fill="none" stroke="black" stroke-dasharray="1,5" d="M643.087,-1051.53C638.379,-1048.8 633.958,-1045.64 630,-1042 558.53,-976.191 336.232,-299.43 288.914,-153.595"/>
<polygon fill="none" stroke="black" points="292.226,-152.463 285.814,-144.029 285.567,-154.621 292.226,-152.463"/>
</g>
<!-- \\GW2CBackend\\Controller\\OptionsControllerProvider -->
<g id="node5" class="node"><title>\\GW2CBackend\\Controller\\OptionsControllerProvider</title>
<a xlink:href="Controller.OptionsControllerProvider.html" xlink:title="OptionsControllerProvider" target="_parent">
<polygon fill="none" stroke="black" points="814.527,-1033 633.473,-1033 633.473,-997 814.527,-997 814.527,-1033"/>
<text text-anchor="middle" x="724" y="-1010.6" font-family="Courier,monospace" font-size="11.00">OptionsControllerProvider</text>
</a>
</g>
<!-- \\GW2CBackend\\Controller\\OptionsControllerProvider&#45;&gt;\\GW2CBackend\\Controller\\ControllerProvider -->
<g id="edge7" class="edge"><title>\\GW2CBackend\\Controller\\OptionsControllerProvider&#45;&gt;\\GW2CBackend\\Controller\\ControllerProvider</title>
<path fill="none" stroke="black" d="M639.786,-1033.03C613.704,-1038.17 584.745,-1043.36 558,-1047 490.258,-1056.22 412.663,-1061.96 356.697,-1065.26"/>
<polygon fill="none" stroke="black" points="356.287,-1061.78 346.505,-1065.85 356.69,-1068.76 356.287,-1061.78"/>
</g>
<!-- \\GW2CBackend\\Controller\\OptionsControllerProvider&#45;&gt;\\Silex\\ControllerProviderInterface -->
<g id="edge13" class="edge"><title>\\GW2CBackend\\Controller\\OptionsControllerProvider&#45;&gt;\\Silex\\ControllerProviderInterface</title>
<path fill="none" stroke="black" stroke-dasharray="1,5" d="M642.29,-996.923C637.89,-994.335 633.746,-991.378 630,-988 363.348,-747.524 295.876,-274.659 282.735,-154.363"/>
<polygon fill="none" stroke="black" points="286.187,-153.724 281.659,-144.146 279.226,-154.457 286.187,-153.724"/>
</g>
<!-- \\GW2CBackend\\Controller\\OrganizeControllerProvider -->
<g id="node6" class="node"><title>\\GW2CBackend\\Controller\\OrganizeControllerProvider</title>
<a xlink:href="Controller.OrganizeControllerProvider.html" xlink:title="OrganizeControllerProvider" target="_parent">
<polygon fill="none" stroke="black" points="817.628,-1141 630.372,-1141 630.372,-1105 817.628,-1105 817.628,-1141"/>
<text text-anchor="middle" x="724" y="-1118.6" font-family="Courier,monospace" font-size="11.00">OrganizeControllerProvider</text>
</a>
</g>
<!-- \\GW2CBackend\\Controller\\OrganizeControllerProvider&#45;&gt;\\GW2CBackend\\Controller\\ControllerProvider -->
<g id="edge9" class="edge"><title>\\GW2CBackend\\Controller\\OrganizeControllerProvider&#45;&gt;\\GW2CBackend\\Controller\\ControllerProvider</title>
<path fill="none" stroke="black" d="M630.133,-1111.68C548.912,-1101.78 432.378,-1087.57 356.442,-1078.32"/>
<polygon fill="none" stroke="black" points="356.817,-1074.84 346.467,-1077.1 355.97,-1081.79 356.817,-1074.84"/>
</g>
<!-- \\GW2CBackend\\Controller\\OrganizeControllerProvider&#45;&gt;\\Silex\\ControllerProviderInterface -->
<g id="edge15" class="edge"><title>\\GW2CBackend\\Controller\\OrganizeControllerProvider&#45;&gt;\\Silex\\ControllerProviderInterface</title>
<path fill="none" stroke="black" stroke-dasharray="1,5" d="M641.697,-1104.83C637.499,-1102.26 633.556,-1099.34 630,-1096 592.549,-1060.86 341.006,-309.3 289.286,-153.947"/>
<polygon fill="none" stroke="black" points="292.521,-152.582 286.043,-144.198 285.879,-154.792 292.521,-152.582"/>
</g>
<!-- \\GW2CBackend\\Controller\\UserControllerProvider -->
<g id="node7" class="node"><title>\\GW2CBackend\\Controller\\UserControllerProvider</title>
<a xlink:href="Controller.UserControllerProvider.html" xlink:title="UserControllerProvider" target="_parent">
<polygon fill="none" stroke="black" points="804.724,-979 643.276,-979 643.276,-943 804.724,-943 804.724,-979"/>
<text text-anchor="middle" x="724" y="-956.6" font-family="Courier,monospace" font-size="11.00">UserControllerProvider</text>
</a>
</g>
<!-- \\GW2CBackend\\Controller\\UserControllerProvider&#45;&gt;\\Silex\\ControllerProviderInterface -->
<g id="edge17" class="edge"><title>\\GW2CBackend\\Controller\\UserControllerProvider&#45;&gt;\\Silex\\ControllerProviderInterface</title>
<path fill="none" stroke="black" stroke-dasharray="1,5" d="M647.297,-942.947C641.042,-939.616 635.154,-935.671 630,-931 380.331,-704.692 300.844,-268.76 283.818,-154.161"/>
<polygon fill="none" stroke="black" points="287.257,-153.487 282.361,-144.091 280.329,-154.489 287.257,-153.487"/>
</g>
<!-- \\GW2CBackend\\Marker\\MapRevision -->
<g id="node9" class="node"><title>\\GW2CBackend\\Marker\\MapRevision</title>
<a xlink:href="Marker.MapRevision.html" xlink:title="MapRevision" target="_parent">
<polygon fill="none" stroke="black" points="768.113,-898 679.887,-898 679.887,-862 768.113,-862 768.113,-898"/>
<text text-anchor="middle" x="724" y="-875.6" font-family="Courier,monospace" font-size="11.00">MapRevision</text>
</a>
</g>
<!-- \\GW2CBackend\\Marker\\Marker -->
<g id="node10" class="node"><title>\\GW2CBackend\\Marker\\Marker</title>
<a xlink:href="Marker.Marker.html" xlink:title="Marker" target="_parent">
<polygon fill="none" stroke="black" points="751.608,-844 696.392,-844 696.392,-808 751.608,-808 751.608,-844"/>
<text text-anchor="middle" x="724" y="-821.6" font-family="Courier,monospace" font-size="11.00">Marker</text>
</a>
</g>
<!-- \\GW2CBackend\\Marker\\MarkerGroup -->
<g id="node11" class="node"><title>\\GW2CBackend\\Marker\\MarkerGroup</title>
<a xlink:href="Marker.MarkerGroup.html" xlink:title="MarkerGroup" target="_parent">
<polygon fill="none" stroke="black" points="768.113,-790 679.887,-790 679.887,-754 768.113,-754 768.113,-790"/>
<text text-anchor="middle" x="724" y="-767.6" font-family="Courier,monospace" font-size="11.00">MarkerGroup</text>
</a>
</g>
<!-- \\GW2CBackend\\Marker\\MarkerType -->
<g id="node12" class="node"><title>\\GW2CBackend\\Marker\\MarkerType</title>
<a xlink:href="Marker.MarkerType.html" xlink:title="MarkerType" target="_parent">
<polygon fill="none" stroke="black" points="765.011,-736 682.989,-736 682.989,-700 765.011,-700 765.011,-736"/>
<text text-anchor="middle" x="724" y="-713.6" font-family="Courier,monospace" font-size="11.00">MarkerType</text>
</a>
</g>
<!-- \\GW2CBackend\\ChangeMerger -->
<g id="node13" class="node"><title>\\GW2CBackend\\ChangeMerger</title>
<a xlink:href="ChangeMerger.html" xlink:title="ChangeMerger" target="_parent">
<polygon fill="none" stroke="black" points="771.713,-682 676.287,-682 676.287,-646 771.713,-646 771.713,-682"/>
<text text-anchor="middle" x="724" y="-659.6" font-family="Courier,monospace" font-size="11.00">ChangeMerger</text>
</a>
</g>
<!-- \\GW2CBackend\\ConfigGenerator -->
<g id="node14" class="node"><title>\\GW2CBackend\\ConfigGenerator</title>
<a xlink:href="ConfigGenerator.html" xlink:title="ConfigGenerator" target="_parent">
<polygon fill="none" stroke="black" points="781.516,-628 666.484,-628 666.484,-592 781.516,-592 781.516,-628"/>
<text text-anchor="middle" x="724" y="-605.6" font-family="Courier,monospace" font-size="11.00">ConfigGenerator</text>
</a>
</g>
<!-- \\GW2CBackend\\DatabaseAdapter -->
<g id="node15" class="node"><title>\\GW2CBackend\\DatabaseAdapter</title>
<a xlink:href="DatabaseAdapter.html" xlink:title="DatabaseAdapter" target="_parent">
<polygon fill="none" stroke="black" points="781.516,-574 666.484,-574 666.484,-538 781.516,-538 781.516,-574"/>
<text text-anchor="middle" x="724" y="-551.6" font-family="Courier,monospace" font-size="11.00">DatabaseAdapter</text>
</a>
</g>
<!-- \\GW2CBackend\\DatabaseServiceProvider -->
<g id="node16" class="node"><title>\\GW2CBackend\\DatabaseServiceProvider</title>
<a xlink:href="DatabaseServiceProvider.html" xlink:title="DatabaseServiceProvider" target="_parent">
<polygon fill="none" stroke="black" points="807.825,-520 640.175,-520 640.175,-484 807.825,-484 807.825,-520"/>
<text text-anchor="middle" x="724" y="-497.6" font-family="Courier,monospace" font-size="11.00">DatabaseServiceProvider</text>
</a>
</g>
<!-- \\Silex\\ServiceProviderInterface -->
<g id="node32" class="node"><title>\\Silex\\ServiceProviderInterface</title>
<ellipse fill="none" stroke="black" cx="279" cy="-72" rx="138.275" ry="18"/>
<text text-anchor="middle" x="279" y="-66.4" font-family="Times,serif" font-size="14.00" fill="gray">\\Silex\\ServiceProviderInterface</text>
</g>
<!-- \\GW2CBackend\\DatabaseServiceProvider&#45;&gt;\\Silex\\ServiceProviderInterface -->
<g id="edge19" class="edge"><title>\\GW2CBackend\\DatabaseServiceProvider&#45;&gt;\\Silex\\ServiceProviderInterface</title>
<path fill="none" stroke="black" stroke-dasharray="1,5" d="M640.223,-483.894C636.503,-481.305 633.057,-478.356 630,-475 515.433,-349.205 683.739,-213.629 558,-99 506.912,-52.4266 426.51,-49.3522 365.287,-55.7722"/>
<polygon fill="none" stroke="black" points="364.783,-52.307 355.249,-56.9268 365.583,-59.2611 364.783,-52.307"/>
</g>
<!-- \\GW2CBackend\\DiffProcessor -->
<g id="node17" class="node"><title>\\GW2CBackend\\DiffProcessor</title>
<a xlink:href="DiffProcessor.html" xlink:title="DiffProcessor" target="_parent">
<polygon fill="none" stroke="black" points="774.814,-466 673.186,-466 673.186,-430 774.814,-430 774.814,-466"/>
<text text-anchor="middle" x="724" y="-443.6" font-family="Courier,monospace" font-size="11.00">DiffProcessor</text>
</a>
</g>
<!-- \\GW2CBackend\\FormatJSON -->
<g id="node18" class="node"><title>\\GW2CBackend\\FormatJSON</title>
<a xlink:href="FormatJSON.html" xlink:title="FormatJSON" target="_parent">
<polygon fill="none" stroke="black" points="765.011,-412 682.989,-412 682.989,-376 765.011,-376 765.011,-412"/>
<text text-anchor="middle" x="724" y="-389.6" font-family="Courier,monospace" font-size="11.00">FormatJSON</text>
</a>
</g>
<!-- \\GW2CBackend\\InputValidator -->
<g id="node19" class="node"><title>\\GW2CBackend\\InputValidator</title>
<a xlink:href="InputValidator.html" xlink:title="InputValidator" target="_parent">
<polygon fill="none" stroke="black" points="778.416,-358 669.584,-358 669.584,-322 778.416,-322 778.416,-358"/>
<text text-anchor="middle" x="724" y="-335.6" font-family="Courier,monospace" font-size="11.00">InputValidator</text>
</a>
</g>
<!-- \\GW2CBackend\\MarkerBuilder -->
<g id="node20" class="node"><title>\\GW2CBackend\\MarkerBuilder</title>
<a xlink:href="MarkerBuilder.html" xlink:title="MarkerBuilder" target="_parent">
<polygon fill="none" stroke="black" points="774.814,-304 673.186,-304 673.186,-268 774.814,-268 774.814,-304"/>
<text text-anchor="middle" x="724" y="-281.6" font-family="Courier,monospace" font-size="11.00">MarkerBuilder</text>
</a>
</g>
<!-- \\GW2CBackend\\TranslatedData -->
<g id="node21" class="node"><title>\\GW2CBackend\\TranslatedData</title>
<a xlink:href="TranslatedData.html" xlink:title="TranslatedData" target="_parent">
<polygon fill="none" stroke="black" points="778.416,-250 669.584,-250 669.584,-214 778.416,-214 778.416,-250"/>
<text text-anchor="middle" x="724" y="-227.6" font-family="Courier,monospace" font-size="11.00">TranslatedData</text>
</a>
</g>
<!-- \\GW2CBackend\\UserProvider -->
<g id="node22" class="node"><title>\\GW2CBackend\\UserProvider</title>
<a xlink:href="UserProvider.html" xlink:title="UserProvider" target="_parent">
<polygon fill="none" stroke="black" points="771.713,-196 676.287,-196 676.287,-160 771.713,-160 771.713,-196"/>
<text text-anchor="middle" x="724" y="-173.6" font-family="Courier,monospace" font-size="11.00">UserProvider</text>
</a>
</g>
<!-- \\Symfony\\Component\\Security\\Core\\User\\UserProviderInterface -->
<g id="node34" class="node"><title>\\Symfony\\Component\\Security\\Core\\User\\UserProviderInterface</title>
<ellipse fill="none" stroke="black" cx="279" cy="-18" rx="278.883" ry="18"/>
<text text-anchor="middle" x="279" y="-12.4" font-family="Times,serif" font-size="14.00" fill="gray">\\Symfony\\Component\\Security\\Core\\User\\UserProviderInterface</text>
</g>
<!-- \\GW2CBackend\\UserProvider&#45;&gt;\\Symfony\\Component\\Security\\Core\\User\\UserProviderInterface -->
<g id="edge21" class="edge"><title>\\GW2CBackend\\UserProvider&#45;&gt;\\Symfony\\Component\\Security\\Core\\User\\UserProviderInterface</title>
<path fill="none" stroke="black" stroke-dasharray="1,5" d="M707.384,-159.89C680.379,-129.986 621.699,-71.0069 558,-45 544.282,-39.3993 529.878,-34.7509 515.148,-30.9073"/>
<polygon fill="none" stroke="black" points="515.973,-27.506 505.424,-28.4958 514.288,-34.3002 515.973,-27.506"/>
</g>
</g>
</svg>
